<svg xmlns="http://www.w3.org/2000/svg" viewBox="0 0 120 148" role="img" aria-labelledby="title"><title id="title">The Black Banner — símbolo</title><path d="M12 7h96v83c0 26-18 42-48 53-30-11-48-27-48-53V7Z" fill="#080907" stroke="#c6a35e" stroke-width="3"/><g fill="none" stroke="#c6a35e" stroke-width="2" stroke-linejoin="round"><path d="M20 15h80v73c0 21-14 34-40 45-26-11-40-24-40-45V15Z"/><path d="M60 22v91M34 39l26 17 26-17-11 31 12 27-27-14-27 14 12-27-11-31Z"/><path opacity=".5" d="m42 31 18 12 18-12M42 108l18-12 18 12"/></g><circle cx="60" cy="70" r="4" fill="#8d2925" stroke="#c6a35e" stroke-width="1.5"/></svg>
