<svg xmlns="http://www.w3.org/2000/svg" viewBox="0 0 96 96" role="img" aria-labelledby="title"><title id="title">The Black Banner — monograma BB</title><path d="M48 5 79 18l12 30-12 30-31 13-31-13L5 48l12-30L48 5Z" fill="#080907" stroke="#c6a35e" stroke-width="2"/><path d="M29 23h23c13 0 20 5 20 14 0 6-4 10-10 12 8 2 12 6 12 13 0 10-8 16-23 16H29V23Zm15 11v11h7c4 0 7-2 7-6s-3-5-7-5h-7Zm0 21v12h8c5 0 8-2 8-6s-3-6-8-6h-8Z" fill="#c6a35e"/><path d="M48 14v68" stroke="#080907" stroke-width="3"/></svg>
