<svg xmlns="http://www.w3.org/2000/svg" viewBox="0 0 760 150" role="img" aria-labelledby="title"><title id="title">The Black Banner Chronicles — assinatura horizontal</title><g transform="translate(10 2) scale(.92)"><path d="M12 7h96v83c0 26-18 42-48 53-30-11-48-27-48-53V7Z" fill="#080907" stroke="#c6a35e" stroke-width="3"/><g fill="none" stroke="#c6a35e" stroke-width="2"><path d="M20 15h80v73c0 21-14 34-40 45-26-11-40-24-40-45V15Z"/><path d="M60 22v91M34 39l26 17 26-17-11 31 12 27-27-14-27 14 12-27-11-31Z"/></g><circle cx="60" cy="70" r="4" fill="#8d2925"/></g><text x="145" y="67" fill="#e8e0cf" font-family="Georgia,serif" font-size="40" letter-spacing="8">THE BLACK BANNER</text><path d="M148 82h560" stroke="#c6a35e" opacity=".45"/><text x="149" y="111" fill="#9d9587" font-family="Arial,sans-serif" font-size="13" font-weight="600" letter-spacing="8">CHRONICLES OF ASTERHEIM</text></svg>
