<svg xmlns="http://www.w3.org/2000/svg" viewBox="0 0 620 500" role="img" aria-labelledby="title"><title id="title">The Black Banner Chronicles — marca principal</title><g transform="translate(250 20)"><path d="M12 7h96v83c0 26-18 42-48 53-30-11-48-27-48-53V7Z" fill="#080907" stroke="#c6a35e" stroke-width="3"/><g fill="none" stroke="#c6a35e" stroke-width="2"><path d="M20 15h80v73c0 21-14 34-40 45-26-11-40-24-40-45V15Z"/><path d="M60 22v91M34 39l26 17 26-17-11 31 12 27-27-14-27 14 12-27-11-31Z"/></g><circle cx="60" cy="70" r="4" fill="#8d2925"/></g><text x="310" y="255" fill="#e8e0cf" text-anchor="middle" font-family="Georgia,serif" font-size="53" letter-spacing="9">THE BLACK</text><text x="310" y="320" fill="#e8e0cf" text-anchor="middle" font-family="Georgia,serif" font-size="53" letter-spacing="9">BANNER</text><path d="M95 355h430" stroke="#c6a35e" opacity=".55"/><text x="310" y="397" fill="#a69d8e" text-anchor="middle" font-family="Arial,sans-serif" font-size="15" font-weight="600" letter-spacing="9">CHRONICLES OF ASTERHEIM</text><path d="m310 432 7 7-7 7-7-7 7-7Z" fill="#8d2925" stroke="#c6a35e"/></svg>
